# xmcd
#
# Track frame offsets:
#	150
#	1432
#	8887
#	13450
#	45697
#	57646
#	74640
#	92116
#	108104
#	110959
#	118202
#	124739
#	133860
#	139122
#	160927
#	167902
#	175177
#	185616
#	196396
#	206452
#	214202
#	217772
#	230654
#
# Disc length: 3087 seconds
# Revision: 0
# Processed by: cddbd v1.5.2PL0 Copyright (c) Steve Scherf et al.
# Submitted via: dBpowerAMP V12.0
#
DISCID=640c0d17
DTITLE=Hale Dwoskin - The Inner Circle Retreat 01 CD 17
DYEAR=2006
DGENRE=Speech
TTITLE0=Intro Music
TTITLE1=Resistance
TTITLE2=Reverse Psychology
TTITLE3=The Fear of Being Strong
TTITLE4=Wanting to Love Everybody Equally
TTITLE5=Release on Feeling Competitive
TTITLE6=The Belief You Are a Competitive Person
TTITLE7=Release on Self-Concepts
TTITLE8=Request
TTITLE9=Release on Wanting to Be Something
TTITLE10=You Are Unconditional Love
TTITLE11=I Am Is Enough
TTITLE12=Courageousness - Acceptance - Peace
TTITLE13=Self-Sabotage - The Fear of Losing Something
TTITLE14=Wanting to Channel It through the Body
TTITLE15=Dissolving Physical Sensations
TTITLE16=Simply Be Love
TTITLE17=Setting Boundaries
TTITLE18=What Is Love
TTITLE19=Partnership Release Demonstration pt 1
TTITLE20=Partnership Release Demonstration pt 2
TTITLE21=Review - Partnership Release Demonstration pt 3
TTITLE22=Concluding Music
EXTD=
EXTT0=
EXTT1=
EXTT2=
EXTT3=
EXTT4=
EXTT5=
EXTT6=
EXTT7=
EXTT8=
EXTT9=
EXTT10=
EXTT11=
EXTT12=
EXTT13=
EXTT14=
EXTT15=
EXTT16=
EXTT17=
EXTT18=
EXTT19=
EXTT20=
EXTT21=
EXTT22=
PLAYORDER=
